<svg width="18" height="18" viewBox="0 0 18 18" fill="none" xmlns="http://www.w3.org/2000/svg">
<path d="M9.65287 11.3032L7.74787 9.42067L7.77037 9.39817C9.07537 7.94317 10.0054 6.27067 10.5529 4.50067H12.7504V3.00067H7.50037V1.50067H6.00037V3.00067H0.750366V4.49317H9.12787C8.62537 5.94067 7.83037 7.31317 6.75037 8.51317C6.05287 7.74067 5.47537 6.89317 5.01787 6.00067H3.51787C4.06537 7.22317 4.81537 8.37817 5.75287 9.42067L1.93537 13.1857L3.00037 14.2507L6.75037 10.5007L9.08287 12.8332L9.65287 11.3032ZM13.8754 7.50067H12.3754L9.00037 16.5007H10.5004L11.3404 14.2507H14.9029L15.7504 16.5007H17.2504L13.8754 7.50067ZM11.9104 12.7507L13.1254 9.50317L14.3404 12.7507H11.9104Z" fill="white"/>
</svg>
